<?xml version="1.0" encoding="utf-8"?>
<!-- Generator: Adobe Illustrator 22.0.0, SVG Export Plug-In . SVG Version: 6.00 Build 0)  -->
<svg version="1.1" id="圖層_1" xmlns="http://www.w3.org/2000/svg" xmlns:xlink="http://www.w3.org/1999/xlink" x="0px" y="0px"
	 viewBox="0 0 2976.4 595.3" style="enable-background:new 0 0 2976.4 595.3;" xml:space="preserve">
<style type="text/css">
	.st0{fill:#363840;}
	.st1{fill:#004EA2;}
	.st2{fill:#003873;}
	.st3{fill:#606060;}
	.st4{fill:#FCFFE3;}
	.st5{fill:#FFCD34;}
	.st6{fill:#4D6680;}
</style>
<rect class="st0" width="2985" height="637"/>
<path class="st1" d="M959,549c0,0,364-270,674-284c0,0,166-6,310,96c0,0,150-50,252-20s308,68,514,158S959,549,959,549z"/>
<polygon class="st2" points="0,509 23.7,509 23.7,488.3 11.8,488.3 45.7,466.3 77,487.7 64.3,487.7 64.3,501.7 88.3,501.7 
	88.3,443.7 144.3,443.7 144.3,419 172.3,419 172.3,408.3 180.3,408.3 180.3,419 186.3,419 186.3,484.3 226.3,484.3 226.3,509 
	249,509 249,451.7 289.7,451.7 289.7,437.7 389.7,437.7 389.7,476.3 468.3,476.3 468.3,529 518.3,529 518.3,323 545.7,323 
	545.7,426 650.3,426 650.3,477 685,477 685,491.7 709,468.3 787,468.3 809,491.7 809,517 831,517 831,458.3 883.7,458.3 
	883.7,436.3 931.7,436.3 931.7,480.3 1001.7,480.3 1001.7,498.3 1043,457 1083.7,497.7 1083.7,517.7 1134.3,517.7 1134.3,405.7 
	1167,405.7 1167,435.7 1245,435.7 1245,455.7 1287.7,455.7 1287.7,247.6 1307.3,228 1326,246.7 1326,457 1350.3,457 1350.3,420.3 
	1477,420.3 1477,502.3 1507.7,502.3 1507.7,477 1599.7,477 1599.7,514.3 1625.7,514.3 1625.7,441 1675.7,441 1675.7,408.3 
	1731.7,408.3 1731.7,443 1785,443 1785,489.7 1829.7,464.3 1902.3,464.3 1947.7,488.3 1947.7,512.3 1982.3,512.3 1982.3,451 
	2006.3,427 2029.7,450.3 2029.7,483 2098.3,483 2098.3,499.7 2131,499.7 2131,403.7 2189.7,403.7 2189.7,422.3 2209.7,422.3 
	2209.7,466.3 2262.3,466.3 2285.7,443 2309.7,467 2329.7,394.3 2349.7,467 2349.7,505 2384.3,505 2384.3,473 2475.7,473 
	2475.7,491.7 2499,491.7 2499,458.3 2523,431.7 2591,431.7 2617,457 2617,481 2672.3,481 2672.3,499 2693,499 2693,415.7 
	2745.7,415.7 2745.7,363.7 2841,363.7 2841,415 2841,468.3 2928.3,468.3 2928.3,435.7 2985,435.7 2985,572.3 0,567.7 "/>
<rect y="561" class="st2" width="2985" height="58"/>
<g>
	<path class="st3" d="M1063.7,191.6c-3.3,0.9-6.8,1.3-10.4,1.3c-23.1,0-41.8-18.7-41.8-41.8s18.7-41.8,41.8-41.8
		c1.5,0,2.9,0.1,4.3,0.2c-14.7,7.2-24.8,22.4-24.8,39.8C1032.8,169.2,1045.8,185.9,1063.7,191.6z"/>
	<path class="st4" d="M1094.9,151.6c0,19.5-13.4,35.9-31.4,40.5c-17.9-5.7-31-22.5-31-42.3c0-17.5,10.1-32.6,24.8-39.8
		C1078.5,112.2,1094.9,130,1094.9,151.6z"/>
</g>
<g>
	<g>
		<path class="st5" d="M2634.1,98.6c2.3-3.8,5.6-6.6,9.8-8.2c0.9-0.3,1.9-0.6,2.9-0.8c2.1,1.1,4.1,2.2,6.2,3.4
			c0.6,1.7-0.9,5.2-1.4,6.7c-2.2,7.4-5.4,14.4-8.9,21.2c-7,13.6-15.3,26.5-21.5,40.5c-0.9,1.9,1.8,3.6,2.9,1.7
			c14.4-25.8,33.2-48.8,55.3-68.3c-0.9-0.1-1.7-0.2-2.6-0.3c4.8,7.9,0.4,18-2.8,25.8c-3.3,8.3-7.6,16.1-12.5,23.5
			c1,0.6,1.9,1.1,2.9,1.7c9.4-20.3,25-36.7,44-48.4c-0.8-0.5-1.7-1-2.5-1.4c-2.4,21.8-22.1,36.5-27.8,57.2c-0.3,1,0.5,2.1,1.6,2.1
			c9.7-0.3,19.3-2.8,27.6-8c6.5-4.1,13.4-10.1,12.1-18.5c-0.1-0.8-1.3-1.5-2.1-1.2c-6.6,2.5-12.2,7-15.1,13.6
			c-1.8,4.2-3.3,12,2.8,13.4c5.8,1.4,12.8-3.8,16.9-7.2c6.6-5.4,12.1-12.1,20.1-15.4c-0.7-0.7-1.4-1.4-2.1-2.1
			c-1.7,4.1-2.8,8.1-3.4,12.5c-0.2,1.1,0.7,2.5,2.1,2.1c6.7-2.4,12.1-6.5,15.6-12.7c0.9-1.6-1.3-3.4-2.6-2
			c-3.1,3.1-16.6,21.5-7,23.7c4.4,1,10.2-4.1,13.3-6.5c5.2-4,9.5-8.8,13.1-14.3c1-1.6-1.3-3.3-2.6-2c-3,3-4,6.5-2.7,10.6
			c0.3,0.8,1.2,1.5,2.1,1.2c6.5-2.6,12.8-5.6,18.9-9.2c-0.6-1-1.1-1.9-1.7-2.9c-4.8,3.3-8.9,7.4-11.6,12.6c-1.4,2.5-4.9,9-0.6,10.8
			c1.8,0.7,3.7-0.4,5.3-1.2c3.3-1.6,6.5-3.3,9.6-5.3c6-3.7,11.4-8.1,16.5-13.1c1.3-1.3-0.5-3.8-2-2.6c-4.8,3.7-7.6,8.3-7.8,14.4
			c0,1,1.1,2,2.1,1.6c9.5-3.3,17.9-8.8,24.3-16.6c-0.9-0.5-1.9-1.1-2.8-1.6c-6.1,15-13.1,29.5-21.2,43.5
			c-3.9,6.9-8.1,13.6-12.5,20.2c-4.2,6.3-8.4,12.5-14.9,16.6c0.8,0.2,1.5,0.4,2.3,0.6c-5.3-9.5,9.1-19.9,15.2-25.5
			c7.1-6.5,14.4-12.8,22-18.7c15.5-12.2,31.9-23,49-32.7c1.9-1.1,0.2-3.9-1.7-2.9c-19.4,11-37.9,23.5-55.2,37.6
			c-8.5,7-16.8,14.3-24.7,22.1c-5.7,5.7-12.1,13.6-7.5,21.8c0.4,0.8,1.5,1.1,2.3,0.6c6-3.7,10.2-9,14.1-14.7
			c4.8-7,9.3-14.3,13.6-21.6c8.6-14.7,16-30.1,22.4-45.9c0.6-1.5-1.8-2.9-2.8-1.6c-6.1,7.4-13.9,12.5-22.9,15.7
			c0.7,0.5,1.4,1.1,2.1,1.6c0.2-4.8,2.4-8.6,6.2-11.5c-0.7-0.9-1.3-1.7-2-2.6c-6.4,6.3-13.6,11.7-21.6,15.9
			c-1.2,0.6-4.6,3.1-5.9,1.8c-0.6-0.6,2.3-5.3,2.8-6.2c2.5-4.1,5.8-7.4,9.7-10.1c1.7-1.2,0.2-4-1.7-2.9c-5.8,3.4-11.8,6.4-18.1,8.8
			c0.7,0.4,1.4,0.8,2.1,1.2c-0.9-2.8-0.3-5.3,1.8-7.4c-0.9-0.7-1.7-1.3-2.6-2c-4.3,6.8-10.1,12.4-16.9,16.6c-1.7,1-4.8,3.9-6.1,0.1
			c-0.3-1,1-3.6,1.3-4.5c1.6-4.3,4.3-7.9,7.5-11.1c-0.9-0.7-1.7-1.3-2.6-2c-3,5.4-7.7,9.1-13.6,11.2c0.7,0.7,1.4,1.4,2.1,2.1
			c0.6-4.4,1.8-8.4,3.4-12.5c0.5-1.1-0.9-2.5-2.1-2.1c-9.3,3.7-15.2,11.5-23,17.3c-2.3,1.7-4.8,3.3-7.5,4.3
			c-2.3,0.9-5.5,2.1-6.7-2.2c-0.3-1,0.4-2.9,0.7-3.9c1.9-6.5,7.4-11.2,13.6-13.5c-0.7-0.4-1.4-0.8-2.1-1.2
			c1.2,8.1-8.7,14.1-14.9,17.1c-6.8,3.4-14.2,4.9-21.7,5.1c0.5,0.7,1.1,1.4,1.6,2.1c5.8-21.1,25.5-35.8,27.9-58.1
			c0.1-1.3-1.5-2-2.5-1.4c-19.5,11.9-35.5,28.8-45.2,49.6c-0.9,1.9,1.7,3.5,2.9,1.7c5.8-8.6,10.6-17.8,14.1-27.5
			c3-8.1,6-17.2,1.2-25.1c-0.6-1-1.8-1-2.6-0.3c-22.3,19.7-41.3,42.9-55.8,69c1,0.6,1.9,1.1,2.9,1.7c8.8-19.7,21.9-37.4,29.2-57.8
			c1.9-5.4,6.6-16.5-1.8-19c-7.7-2.3-16.6,4.4-20.3,10.6C2630.1,98.8,2633,100.4,2634.1,98.6L2634.1,98.6z"/>
	</g>
</g>
<g>
	<g>
		<g>
			<path class="st6" d="M2919.6,573.4c-1.4,3.5-2.7,6.9-3.8,10.5c-0.6,1.9-2.2,4.8-1.1,6.7c0.3,0.5,0.9,0.7,1.4,0.6
				c0.7-0.2,1-0.5,1.3-1.2c0.2-0.5-0.1-1.1-0.6-1.4c-0.1,0-0.1-0.1-0.2-0.1c-1.3-0.9-2.6,1.3-1.3,2.2c0.1,0,0.1,0.1,0.2,0.1
				c-0.2-0.5-0.4-0.9-0.6-1.4c0.2-0.2,0.3-0.3,0.5-0.5c0.5,0.2,0.9,0.4,1.4,0.6c-0.3-0.6,0.8-2.9,1-3.6c0.4-1.4,0.9-2.8,1.3-4.1
				c0.9-2.5,1.8-5.1,2.8-7.6C2922.6,572.5,2920.2,571.9,2919.6,573.4L2919.6,573.4z"/>
		</g>
	</g>
	<g>
		<g>
			<path class="st6" d="M2926.3,574.6c-3.4,3.2-6.8,6.4-10.3,9.6c-0.8,0.7-0.2,2.1,0.9,2.1c3,0,6.1-0.1,9.1-0.1c1.6,0,1.6-2.5,0-2.5
				c-3,0-6.1,0.1-9.1,0.1c0.3,0.7,0.6,1.4,0.9,2.1c3.4-3.2,6.8-6.4,10.3-9.6C2929.2,575.3,2927.5,573.5,2926.3,574.6L2926.3,574.6z"
				/>
		</g>
	</g>
	<g>
		<g>
			<path class="st6" d="M2929.6,579c-1.1,1.7-1.8,3.5-2.1,5.5c-0.2,1.4-0.3,3.3,0.9,4.4c1.3,1,2.6,0.3,3.6-0.7
				c1.9-1.9,3.5-4.1,5.3-6.1c-0.7-0.4-1.4-0.8-2.1-1.2c-0.6,1.7-1.3,3.4-1.9,5.1c-0.6,1.5,1.9,2.2,2.4,0.7c0.6-1.7,1.3-3.4,1.9-5.1
				c0.4-1.2-1.3-2.1-2.1-1.2c-1,1.1-1.9,2.2-2.9,3.3c-0.2,0.2-2.5,3.2-2.7,3.1c-0.3-0.1,0.1-2.4,0.2-2.8c0.3-1.3,0.9-2.5,1.6-3.7
				C2932.6,579,2930.5,577.7,2929.6,579L2929.6,579z"/>
		</g>
	</g>
	<g>
		<g>
			<path class="st6" d="M2940.2,579.7c-1.4,2.7-1.8,5.6-1.1,8.6c0.1,0.6,0.9,1.1,1.5,0.9c2.7-0.9,4.6-3.4,4.7-6.3
				c0.1-1.1-0.1-3-1.2-3.6c-1.4-0.7-3.4-0.1-4.7,0.7c-1.4,0.8-0.1,3,1.3,2.2c0.8-0.5,1.7-0.7,2.6-0.5c-0.2-0.2-0.5-0.4-0.7-0.6
				c0.9,2.2-0.4,4.9-2.6,5.7c0.5,0.3,1,0.6,1.5,0.9c-0.5-2.3-0.2-4.6,0.9-6.7C2943.1,579.5,2941,578.3,2940.2,579.7L2940.2,579.7z"
				/>
		</g>
	</g>
	<g>
		<g>
			<path class="st6" d="M2947,580.8c4.6-1,8.7-2.8,12.4-5.6c-0.5-0.7-1-1.3-1.5-2c-4.9,4.4-8,10.3-9,16.8c-0.2,1.6,2.2,2.3,2.4,0.7
				c0.9-6.2,3.7-11.5,8.3-15.7c1-0.9-0.4-2.8-1.5-2c-3.6,2.6-7.5,4.4-11.8,5.3C2944.7,578.7,2945.4,581.1,2947,580.8L2947,580.8z"/>
		</g>
	</g>
	<g>
		<g>
			<path class="st6" d="M2957.8,583.9c1.9-0.5,3.9-1.1,5.8-1.6c-0.5-0.5-1-1-1.5-1.5c-0.8,3-2.1,5.8-3.7,8.5c-0.4,0.7,0,1.6,0.7,1.8
				c3.2,1.1,6.5-0.1,8.5-2.8c0.9-1.3-1.2-2.6-2.2-1.3c-1.3,1.8-3.6,2.4-5.7,1.7c0.2,0.6,0.5,1.2,0.7,1.8c1.7-2.8,3.1-5.9,3.9-9.1
				c0.3-0.9-0.6-1.8-1.5-1.5c-1.9,0.5-3.9,1.1-5.8,1.6C2955.5,581.9,2956.2,584.3,2957.8,583.9L2957.8,583.9z"/>
		</g>
	</g>
	<g>
		<g>
			<path class="st6" d="M2957.3,586.9c3.6,0.3,7.1,0.5,10.7,0.8c1.6,0.1,1.6-2.4,0-2.5c-3.6-0.3-7.1-0.5-10.7-0.8
				C2955.7,584.2,2955.7,586.7,2957.3,586.9L2957.3,586.9z"/>
		</g>
	</g>
</g>
<g>
	<g>
		<g>
			<path class="st5" d="M2491.7,233.6c21.7-5.2,42.9-12.1,63.4-20.9c9.4-4,19.5-8.1,28.1-13.8c6.2-4.2,12.2-10.1,11.4-18.2
				c-0.1-1.3-1.2-2.3-2.6-2c-16.6,3.8-30,14.2-42.8,25c-7.6,6.4-15.1,12.9-22.4,19.7c-5.1,4.8-10.2,10.5-10.8,17.9
				c-0.5,6.3,2.6,12.3,8.6,14.7c6.8,2.8,14.6,0.7,21.2-1.5c15.4-5.2,29.3-13.8,41.7-24.2c14.5-12.2,27-26.5,39.3-40.9
				c1.7-2-1-4.7-2.9-2.9c-20.5,19.5-38.3,41.6-52.8,65.9c1.2,0.7,2.3,1.4,3.5,2c6.3-11.1,13.7-22.7,26.8-26.1
				c-0.8-0.8-1.7-1.7-2.5-2.5c-1.5,8.4-2.9,16.9-4.4,25.3c-0.3,1.9,1.9,3.6,3.4,2c9.3-9.8,18.7-19.4,28.2-29.1
				c1.8-1.9-1-4.7-2.9-2.9c-4.6,4.4-6.5,10-5.4,16.2c0.3,1.4,1.9,1.7,3,1.2c7.2-3,13-7.7,17.6-14c1.4-1.9-1.6-4-3.2-2.5
				c-5.9,5.7-10.8,12.3-14,19.8c-1.6,3.7-3.2,11.8,3.8,10.3c3.5-0.8,7.2-3.6,10.2-5.5c3.2-2.1,6.3-4.5,9.2-7
				c5.9-5.3,10.9-11.5,14.9-18.3c1.2-2-1.5-4-3.2-2.5c-8.6,8-14.6,18.1-17,29.6c-0.2,1.2,0.6,2.7,2,2.6
				c17.9-1.7,24.7-19.4,38.5-28.1c-1-0.6-2-1.2-3-1.8c-0.1,4.3-0.6,8.6-1.9,12.7c-0.7,2.1-1.4,4.1-2.4,6c-0.3,0.6-0.6,1.2-1,1.8
				c-1.6,2.9-3.9,3.2-6.8,0.8c-0.5-2.6-4.3-1.5-3.9,1.1c0.9,5.2,6,8.2,11.1,8.4c7.1,0.3,12.9-4.5,17.8-9
				c13.2-12,25.2-25.2,36.1-39.4c1.5-1.9-1.6-3.9-3.2-2.5c-7.4,6.4-13.6,14-18,22.8c-3.5,6.9-7.9,16.7-6.2,24.6
				c1.7,8.1,9.9,7.7,15.4,3.6c9.5-7.1,18.1-15.9,27-23.7c-1.1-0.3-2.3-0.6-3.4-0.9c2.2,7.4,0.6,14.8-4.3,20.8c1.1,0.7,2.3,1.3,3.4,2
				c1.9-8.9,8.3-15.6,16.7-18.7c-0.9-0.7-1.7-1.3-2.6-2c-0.4,6.5-1.9,12.7-4.5,18.7c1.2,0.5,2.5,1,3.7,1.6
				c3.9-10.2,13.2-17,23.6-19.3c-0.8-1-1.5-2-2.3-3c-4.7,7.6-7,16-6.6,25c0.1,1.8,2.1,2.6,3.5,1.4c12.3-10.8,25.8-19.9,40.4-27.3
				c-1-0.4-2-0.8-3-1.2c1.1,2.6,1.5,5,1.2,7.8c1.4,0,2.7,0,4.1,0c0.2-3.7-0.5-6.9-2-10.3c-0.5-1-1.9-1.2-2.8-0.7
				c-11.6,5.9-20.3,16.2-23,29c-0.3,1.5,0.9,3,2.5,2.5c13.1-3.9,20.8-15,27.5-26.2c1.4-2.3-2-4.1-3.5-2c-6.2,8.5-9.2,18.5-8.6,29
				c0.1,1.5,1.7,2.5,3,1.8c13.7-7.8,25-19,32.3-33c-1.2-0.5-2.5-1-3.7-1.6c-0.9,6.1-1.7,12.2-2.6,18.3c-0.3,2.1-0.6,4.2-1.5,6.1
				c-0.7,1.6-1.9,3.6-3.8,4.2c-1.3,0.3-6-0.5-4.8-2.9c-1.2,0-2.3,0-3.5,0c3.8,7.9,13.6,9.6,21.6,9.4c11.8-0.4,23.3-3.8,33.6-9.4
				c2.3-1.2,0.2-4.7-2-3.5c-8.7,4.7-18.3,7.8-28.2,8.6c-7.3,0.7-17.7,0.5-21.4-7.2c-0.7-1.3-2.8-1.3-3.5,0
				c-3.4,6.8,6.3,11.1,11.5,7.8c3.5-2.2,4.9-6.3,5.7-10.2c1.3-6.7,2-13.5,2.9-20.2c0.3-2.1-2.5-3.8-3.7-1.6
				c-7,13.4-17.7,24.1-30.8,31.6c1,0.6,2,1.2,3,1.8c-0.6-9.9,2.3-18.9,8.1-26.9c-1.2-0.7-2.3-1.4-3.5-2
				c-6.1,10.2-13.1,20.7-25.1,24.3c0.8,0.8,1.7,1.7,2.5,2.5c2.5-11.9,10.5-21.1,21.2-26.6c-0.9-0.2-1.8-0.5-2.8-0.7
				c1.2,2.7,1.6,5.2,1.5,8.2c-0.1,2.6,3.8,2.6,4.1,0c0.3-3.2-0.1-5.9-1.4-8.9c-0.5-1.2-1.7-1.9-3-1.2c-14.9,7.6-28.7,16.9-41.2,27.9
				c1.2,0.5,2.3,1,3.5,1.4c-0.4-8.3,1.7-15.9,6-22.9c1-1.6-0.6-3.3-2.3-3c-12,2.7-22,10.6-26.5,22.1c-0.8,2.1,2.8,3.7,3.7,1.6
				c3-6.7,4.7-13.5,5.1-20.7c0.1-1.2-1.4-2.4-2.6-2c-9.7,3.6-17.3,11.3-19.5,21.6c-0.4,1.8,2,3.7,3.4,2c5.8-7.1,7.9-15.9,5.3-24.7
				c-0.4-1.5-2.2-1.9-3.4-0.9c-6.3,5.6-12.7,11.2-19,16.8c-3,2.7-7.1,7.7-11.3,8.6c-6.7,1.4-5.6-6.5-4.8-10.2
				c3.2-14.5,11.5-27.2,22.7-36.8c-1.1-0.8-2.1-1.6-3.2-2.5c-8.1,10.5-16.8,20.5-26.2,29.9c-4.5,4.4-9,9.2-14.2,12.9
				c-4.6,3.3-15.7,6.7-17.1-1.8c-1.3,0.4-2.6,0.7-3.9,1.1c1.1,6.2,9,5.8,12.6,2.2c5.9-5.9,7.5-16.6,7.6-24.5c0-1.5-1.7-2.6-3-1.8
				c-12.8,8-20.1,26-36.5,27.5c0.7,0.9,1.3,1.7,2,2.6c2.2-10.9,7.8-20.3,15.9-27.8c-1.1-0.8-2.1-1.6-3.2-2.5
				c-5.6,9.6-13.3,17.8-22.6,23.9c-1.7,1.1-4.9,3.9-6.9,4c-4.5,0.2-0.6-5.6,0.4-7.4c3-5.6,6.9-10.4,11.4-14.8
				c-1.1-0.8-2.1-1.6-3.2-2.5c-4.2,5.7-9.7,9.8-16.2,12.5c1,0.4,2,0.8,3,1.2c-0.9-4.8,0.9-8.9,4.3-12.3c-1-1-1.9-1.9-2.9-2.9
				c-9.5,9.6-18.9,19.3-28.2,29.1c1.1,0.7,2.3,1.3,3.4,2c1.5-8.4,2.9-16.9,4.4-25.3c0.3-1.5-0.9-2.9-2.5-2.5
				c-14.2,3.7-22.4,16-29.3,28c-1.3,2.3,2.2,4.3,3.5,2c14.3-24,31.9-45.8,52.1-65.1c-1-1-1.9-1.9-2.9-2.9
				c-18,21.1-36.9,42.7-61.5,56.3c-8.8,4.8-37.8,19.8-42.1,2.8c-2.1-8.4,5.1-15.3,10.6-20.4c6-5.5,12.1-10.8,18.2-16.1
				c13.1-11.2,26.7-22.5,43.8-26.5c-0.9-0.7-1.7-1.3-2.6-2c1,9.3-8.8,14.8-15.9,18.4c-9.1,4.7-18.4,8.8-27.8,12.6
				c-18.2,7.4-37,13.3-56.2,17.9C2488.1,230.3,2489.2,234.2,2491.7,233.6L2491.7,233.6z"/>
		</g>
	</g>
	<g>
		<g>
			<path class="st5" d="M2689.1,221.2c18.8-0.6,37.6-1.2,56.4-1.8c2.6-0.1,2.6-4.1,0-4.1c-18.8,0.6-37.6,1.2-56.4,1.8
				C2686.5,217.3,2686.5,221.3,2689.1,221.2L2689.1,221.2z"/>
		</g>
	</g>
	<g>
		<g>
			<path class="st5" d="M2654.6,206.7c5.7-0.9,10.8-3.4,15.1-7.3c-1-1-1.9-1.9-2.9-2.9c-2.3,2.9-4.8,6.8-2.7,10.6
				c1.7,3.1,5.3,4,8.4,2.6c2-0.9,0.7-3.6-1-3.8c-5.1-0.5-9.9,1.7-12.6,6c1.2,0.5,2.5,1,3.7,1.6c1.4-5.6-3.1-10.4-8.6-10.6
				c-2.6-0.1-2.6,3.9,0,4.1c2.8,0.1,5.5,2.5,4.7,5.5c-0.6,2.2,2.5,3.5,3.7,1.6c2-3.2,5.5-4.4,9.1-4c-0.3-1.3-0.7-2.5-1-3.8
				c-0.8-0.2-1.6-0.4-2.3-0.5c-0.8-0.9-1-1.9-0.4-2.9c0.3-1.3,1.1-2.3,1.9-3.4c1.6-2-0.9-4.7-2.9-2.9c-3.8,3.4-8.3,5.4-13.3,6.2
				C2651,203.2,2652.1,207.1,2654.6,206.7L2654.6,206.7z"/>
		</g>
	</g>
</g>
</svg>
