<?xml version="1.0" encoding="UTF-8" standalone="no"?>
<!-- Created with Inkscape (http://www.inkscape.org/) -->

<svg
   xmlns:dc="http://purl.org/dc/elements/1.1/"
   xmlns:cc="http://creativecommons.org/ns#"
   xmlns:rdf="http://www.w3.org/1999/02/22-rdf-syntax-ns#"
   xmlns:svg="http://www.w3.org/2000/svg"
   xmlns="http://www.w3.org/2000/svg"
   xmlns:sodipodi="http://sodipodi.sourceforge.net/DTD/sodipodi-0.dtd"
   xmlns:inkscape="http://www.inkscape.org/namespaces/inkscape"
   width="300cm"
   height="45cm"
   viewBox="0 0 3000 450"
   version="1.1"
   id="svg8"
   inkscape:version="0.92.4 (5da689c313, 2019-01-14)"
   sodipodi:docname="img2.svg">
  <defs
     id="defs2" />
  <sodipodi:namedview
     id="base"
     pagecolor="#ffffff"
     bordercolor="#666666"
     borderopacity="1.0"
     inkscape:pageopacity="0.0"
     inkscape:pageshadow="2"
     inkscape:zoom="0.12374369"
     inkscape:cx="3640.2398"
     inkscape:cy="1094.3558"
     inkscape:document-units="mm"
     inkscape:current-layer="layer1"
     showgrid="false"
     height="209mm"
     units="cm"
     inkscape:window-width="2048"
     inkscape:window-height="1058"
     inkscape:window-x="-11"
     inkscape:window-y="-11"
     inkscape:window-maximized="1" />
  <metadata
     id="metadata5">
    <rdf:RDF>
      <cc:Work
         rdf:about="">
        <dc:format>image/svg+xml</dc:format>
        <dc:type
           rdf:resource="http://purl.org/dc/dcmitype/StillImage" />
        <dc:title></dc:title>
      </cc:Work>
    </rdf:RDF>
  </metadata>
  <g
     inkscape:label="圖層 1"
     inkscape:groupmode="layer"
     id="layer1"
     transform="translate(0,153)">
    <rect
       style="opacity:0.82900002;fill:#000080;fill-opacity:1;stroke:#808080;stroke-width:0.96499997;stroke-linecap:square;stroke-linejoin:round;stroke-miterlimit:4;stroke-dasharray:none;stroke-dashoffset:38.02204895;stroke-opacity:1;paint-order:stroke markers fill"
       id="rect1368"
       width="3427.4644"
       height="673.51923"
       x="-23.519718"
       y="-190.49963" />
    <path
       style="fill:#666666;stroke:#808080;stroke-width:0.26458332px;stroke-linecap:butt;stroke-linejoin:miter;stroke-opacity:1"
       d="m 2969.3809,295.48809 c 0,-34.01788 0.7559,-34.01788 0.7559,-34.01788 l 23.4347,0.75597 -53.6726,-54.42858 -49.893,45.35715 13.6072,-0.75596 0.7559,12.09524 -86.1784,-3.77976 v -64.25594 l -161.0181,-7.55954 6.8035,66.52381 -89.2022,-5.29166 0.7559,-192.011908 -57.4523,-3.779761 -4.5358,120.952389 -104.3214,-3.02381 -2.2678,30.23809 -83.1548,-72.57143 -68.7917,68.79167 -81.6428,-104.321433 -194.2798,-7.559524 -68.0357,110.369047 3.7798,-135.315477 -62.7441,-6.80357 0.756,198.815467 -37.7977,2.26785 -3.0238,-55.94045 -146.6547,-4.53573 -2.2679,44.60118 -80.8869,-77.10712 -60.4762,71.81546 1.5119,-95.25 -128.5119,2.26787 2.2679,41.57737 -127.756,3.77976 3.0238,80.8869 -103.5654,2.26788 -5.2917,-306.916675 -57.4524,3.023809 -0.7559,206.374996 -95.25,4.53572 v 34.77382 l -66.52384,-55.18454 -81.64285,66.52381 v 28.72619 l -21.16666,0.75596 V 176.80354 L 617.61308,175.29166 V 239.5476 L 532.94642,108.76784 460.37499,237.27975 c 0,0 63.5,-105.07739 0,-99.02975 -63.49999,6.0476 -62.74405,-6.04764 -62.74405,-6.04764 l -4.5357,99.78573 c 0,0 -377.976193,-197.303582 -424.84524,-18.89882 -46.869047,178.40476 167.06547,124.73215 167.06547,124.73215 l 2884.71433,11.33927 8.3153,-68.79166 z"
       id="path1366"
       inkscape:connector-curvature="0" />
  </g>
</svg>
