<svg id="圖層_1" data-name="圖層 1" xmlns="http://www.w3.org/2000/svg" viewBox="0 0 2976.38 595.28"><defs><style>.cls-1{fill:#363840;}.cls-2{fill:#004ea2;}.cls-3{fill:#003873;}.cls-4{fill:#606060;}.cls-5{fill:#fcffe3;}</style></defs><title>img1</title><rect class="cls-1" width="2985" height="637"/><path class="cls-2" d="M959,549s364-270,674-284c0,0,166-6,310,96,0,0,150-50,252-20s308,68,514,158S959,549,959,549Z"/><polygon class="cls-3" points="0 509 23.67 509 23.67 488.33 11.83 488.33 45.67 466.33 77 487.67 64.33 487.67 64.33 501.67 88.33 501.67 88.33 443.67 144.33 443.67 144.33 419 172.33 419 172.33 408.33 180.33 408.33 180.33 419 186.33 419 186.33 484.33 226.33 484.33 226.33 509 249 509 249 451.67 289.67 451.67 289.67 437.67 389.67 437.67 389.67 476.33 468.33 476.33 468.33 529 518.33 529 518.33 323 545.67 323 545.67 426 650.33 426 650.33 477 685 477 685 491.67 709 468.33 787 468.33 809 491.67 809 517 831 517 831 458.33 883.67 458.33 883.67 436.33 931.67 436.33 931.67 480.33 1001.67 480.33 1001.67 498.33 1043 457 1083.67 497.67 1083.67 517.67 1134.33 517.67 1134.33 405.67 1167 405.67 1167 435.67 1245 435.67 1245 455.67 1287.67 455.67 1287.67 247.64 1307.32 227.99 1325.99 246.65 1325.99 457 1350.33 457 1350.33 420.33 1477 420.33 1477 502.33 1507.67 502.33 1507.67 477 1599.67 477 1599.67 514.33 1625.67 514.33 1625.67 441 1675.67 441 1675.67 408.33 1731.67 408.33 1731.67 443 1785 443 1785 489.67 1829.67 464.33 1902.33 464.33 1947.67 488.33 1947.67 512.33 1982.33 512.33 1982.33 451 2006.33 427 2029.67 450.33 2029.67 483 2098.33 483 2098.33 499.67 2131 499.67 2131 403.67 2189.67 403.67 2189.67 422.33 2209.67 422.33 2209.67 466.33 2262.33 466.33 2285.67 443 2309.67 467 2329.67 394.33 2349.67 467 2349.67 505 2384.33 505 2384.33 473 2475.67 473 2475.67 491.67 2499 491.67 2499 458.33 2523 431.67 2591 431.67 2617 457 2617 481 2672.33 481 2672.33 499 2693 499 2693 415.67 2745.67 415.67 2745.67 363.67 2841 363.67 2841 415 2841 468.33 2928.33 468.33 2928.33 435.67 2985 435.67 2985 572.33 0 567.67 0 509"/><rect class="cls-3" y="561" width="2985" height="58"/><path class="cls-4" d="M1063.72,191.63a41.85,41.85,0,1,1-10.42-82.38c1.45,0,2.88.08,4.29.22a44.39,44.39,0,0,0,6.13,82.16Z"/><path class="cls-5" d="M1094.91,151.64a41.87,41.87,0,0,1-31.42,40.54,44.39,44.39,0,0,1-6.13-82.16A41.85,41.85,0,0,1,1094.91,151.64Z"/></svg>